<?xml version="1.0" standalone="no"?>
<!DOCTYPE svg PUBLIC "-//W3C//DTD SVG 20010904//EN"
 "http://www.w3.org/TR/2001/REC-SVG-20010904/DTD/svg10.dtd">
<svg version="1.0" xmlns="http://www.w3.org/2000/svg"
 width="1120.000000pt" height="1120.000000pt" viewBox="0 0 1120.000000 1120.000000"
 preserveAspectRatio="xMidYMid meet">
<metadata>
Created by potrace 1.14, written by Peter Selinger 2001-2017
</metadata>
<g transform="translate(0.000000,1120.000000) scale(0.100000,-0.100000)"
fill="#000000" stroke="none">
<path d="M5257 8504 c-2 -2 -34 -6 -73 -9 -38 -4 -82 -9 -99 -12 -16 -3 -39
-7 -51 -8 -11 -2 -45 -8 -75 -14 -30 -6 -63 -13 -74 -15 -37 -8 -269 -78 -280
-84 -5 -4 -12 -7 -15 -8 -5 -1 -9 -2 -105 -41 -133 -55 -433 -220 -443 -245
-2 -4 -8 -8 -14 -8 -11 0 -217 -152 -278 -205 -55 -47 -224 -209 -233 -222 -4
-7 -13 -18 -20 -25 -52 -52 -223 -281 -263 -353 -6 -11 -30 -53 -54 -94 -35
-62 -101 -193 -105 -211 -1 -3 -6 -16 -12 -30 -44 -101 -118 -314 -128 -369
-2 -9 -4 -16 -5 -16 -1 0 -3 -8 -5 -17 -2 -9 -13 -59 -25 -110 -28 -117 -31
-166 -13 -200 28 -57 72 -67 189 -44 12 2 39 7 60 10 22 3 50 8 64 11 78 16
562 30 584 17 5 -3 30 -6 55 -8 46 -2 116 -10 181 -20 19 -3 46 -7 60 -9 83
-12 219 -40 324 -66 66 -16 129 -32 139 -34 50 -12 325 -92 412 -120 224 -73
389 -121 445 -130 53 -8 202 -36 230 -42 14 -3 36 -7 50 -8 14 -2 41 -5 60 -8
201 -33 414 -45 570 -32 41 4 87 7 103 8 15 1 27 5 27 9 0 3 7 5 16 4 9 -2 62
10 117 25 56 16 103 26 106 24 2 -3 9 -1 15 4 10 7 114 30 171 37 11 1 20 3
20 4 0 1 15 3 34 6 19 2 46 7 60 10 14 3 42 7 61 9 19 2 49 6 65 9 17 3 55 8
85 11 30 3 66 8 80 10 153 24 577 39 613 23 9 -5 17 -5 17 -1 0 4 20 9 45 10
55 2 103 28 128 70 23 40 28 129 11 209 -6 33 -14 75 -18 94 -3 19 -10 53 -15
75 -6 22 -13 54 -17 70 -19 89 -92 324 -125 400 -7 17 -13 33 -14 38 -2 4 -4
9 -5 12 -1 3 -3 8 -4 13 -6 24 -111 237 -144 292 -12 19 -25 42 -29 50 -9 21
-122 190 -147 221 -12 14 -32 40 -46 59 -82 109 -263 289 -395 393 -63 50
-116 87 -124 87 -4 0 -16 9 -26 20 -10 11 -24 20 -32 20 -7 0 -13 5 -13 10 0
6 -5 10 -11 10 -6 0 -23 8 -37 19 -71 50 -294 162 -422 211 -70 28 -220 81
-240 85 -8 2 -16 4 -17 5 -2 2 -6 3 -10 4 -70 16 -120 30 -129 37 -6 5 -13 7
-15 4 -3 -2 -29 2 -59 10 -30 8 -75 18 -100 21 -25 3 -54 8 -65 10 -92 19
-191 26 -383 29 -100 1 -183 0 -185 -1z"/>
<path d="M3446 6083 c-1 -1 -38 -5 -82 -8 -43 -2 -97 -7 -119 -10 -64 -9 -118
-17 -140 -22 -11 -2 -33 -6 -50 -8 -16 -2 -60 -13 -97 -24 -38 -11 -68 -17
-68 -15 0 9 -26 -21 -37 -41 -6 -12 -7 -32 -2 -51 11 -38 41 -52 119 -54 165
-4 275 -15 370 -37 8 -2 27 -5 42 -8 43 -6 219 -53 383 -101 83 -25 163 -47
179 -50 16 -3 34 -8 40 -12 9 -6 104 -34 159 -47 9 -2 20 -6 25 -8 4 -3 25 -8
46 -11 22 -4 45 -11 53 -17 7 -6 13 -9 13 -7 0 3 35 -3 78 -14 42 -10 88 -21
102 -24 14 -3 52 -12 85 -20 33 -8 67 -15 75 -15 8 -1 31 -5 50 -10 19 -4 58
-11 85 -14 28 -4 57 -8 66 -11 9 -3 34 -7 55 -10 22 -3 53 -7 69 -9 250 -36
658 -31 838 11 4 1 16 2 26 3 30 2 62 33 67 67 6 40 -24 75 -68 80 -31 4 -58
8 -118 18 -14 2 -65 10 -115 16 -152 20 -186 26 -305 57 -101 26 -394 123
-467 154 -24 10 -43 16 -43 12 0 -3 -6 -1 -12 4 -10 8 -68 31 -98 38 -3 1 -13
5 -22 8 -10 4 -26 10 -35 14 -10 3 -20 7 -23 8 -3 1 -12 4 -20 8 -82 32 -321
97 -332 91 -4 -3 -8 0 -8 6 0 7 -6 10 -12 7 -7 -2 -26 0 -43 5 -16 5 -46 11
-65 13 -19 3 -46 7 -60 10 -90 17 -571 40 -584 28z"/>
<path d="M7407 5783 c-1 -1 -47 -4 -102 -7 -55 -4 -116 -8 -135 -10 -167 -20
-206 -26 -270 -41 -14 -3 -41 -8 -60 -11 -19 -3 -78 -17 -130 -30 -52 -14 -99
-26 -105 -27 -5 -2 -16 -6 -22 -10 -7 -5 -13 -5 -13 -1 0 3 -7 1 -15 -6 -8 -7
-15 -10 -15 -7 0 6 -103 -30 -230 -80 -108 -42 -296 -136 -465 -234 -184 -105
-218 -124 -300 -169 -33 -18 -64 -36 -70 -40 -47 -34 -529 -283 -715 -368 -97
-45 -238 -105 -290 -124 -30 -12 -66 -25 -80 -31 -80 -32 -180 -64 -185 -59
-3 3 -5 1 -5 -5 0 -5 -6 -10 -12 -10 -7 0 -53 -13 -103 -28 -87 -27 -298 -79
-360 -90 -16 -3 -52 -10 -80 -15 -27 -6 -68 -13 -90 -15 -22 -3 -47 -7 -55
-10 -8 -2 -49 -7 -90 -10 -41 -4 -88 -9 -105 -11 -16 -1 -55 -4 -87 -5 -32 -1
-58 -6 -58 -10 0 -22 142 -77 220 -86 19 -2 46 -6 60 -8 14 -3 52 -7 85 -11
81 -8 103 -12 114 -18 5 -4 12 -2 16 4 4 6 11 7 17 4 32 -20 428 -19 618 0 60
7 190 24 230 31 135 23 177 31 225 43 22 6 51 13 65 16 24 5 108 28 220 61 30
9 62 18 70 20 19 5 128 44 155 55 11 4 70 27 130 50 61 23 133 52 160 65 28
12 73 32 100 44 67 30 359 174 365 181 3 3 27 16 55 30 27 14 97 51 155 84
123 68 324 178 395 216 28 15 77 42 110 60 84 46 417 212 430 214 5 1 24 9 40
18 26 14 81 38 185 81 14 5 30 11 35 13 6 1 55 18 110 38 103 36 271 81 339
92 21 3 48 8 60 10 130 26 396 23 545 -7 43 -9 55 -8 62 3 10 16 -8 35 -41 42
-14 2 -50 12 -80 22 -64 20 -58 19 -135 32 -70 13 -138 23 -260 38 -148 18
-597 38 -608 27z"/>
<path d="M2748 5715 c-2 -1 -43 -6 -93 -9 -49 -4 -109 -11 -133 -17 -23 -5
-57 -11 -76 -13 -79 -11 -296 -75 -366 -110 -40 -19 -45 -26 -48 -58 -5 -54
25 -66 156 -64 56 0 102 -3 102 -7 0 -5 6 -5 12 0 17 10 149 11 171 1 11 -6
17 -5 17 2 0 6 3 9 8 7 4 -3 57 -8 118 -11 181 -9 255 -24 472 -92 7 -2 14 -4
17 -4 3 -1 20 -7 40 -16 19 -8 35 -11 35 -8 0 4 6 2 13 -4 11 -9 263 -97 312
-108 24 -6 27 -7 85 -23 25 -7 53 -15 63 -17 10 -2 27 -6 37 -9 10 -3 27 -8
37 -10 10 -2 50 -10 88 -19 105 -22 127 -27 160 -32 27 -4 76 -13 115 -20 55
-11 194 -23 310 -29 52 -2 97 -5 100 -5 15 -5 361 15 368 20 4 4 14 6 82 15
75 11 83 12 90 15 3 1 16 3 30 6 113 18 239 67 241 93 4 57 -12 85 -51 86 -8
0 -21 4 -27 8 -8 5 -13 4 -13 -3 0 -6 -4 -9 -9 -6 -5 3 -53 8 -107 11 -55 3
-108 7 -119 9 -11 2 -51 7 -89 10 -38 4 -72 9 -76 11 -3 2 -28 6 -55 10 -74
10 -81 11 -190 35 -133 28 -124 26 -170 38 -22 6 -51 13 -65 16 -14 3 -41 10
-60 15 -65 17 -265 72 -295 81 -39 11 -160 45 -255 71 -41 11 -102 27 -135 35
-33 8 -76 19 -95 24 -64 18 -205 44 -292 54 -27 3 -69 9 -95 12 -45 6 -360 13
-365 9z"/>
<path d="M8248 5515 c-2 -2 -43 -6 -93 -9 -91 -7 -150 -13 -194 -21 -13 -2
-45 -7 -70 -11 -52 -7 -76 -11 -111 -19 -14 -3 -38 -8 -55 -10 -16 -3 -73 -17
-125 -31 -52 -14 -99 -27 -105 -28 -5 -1 -54 -17 -107 -35 -54 -18 -100 -32
-104 -31 -4 1 -10 -2 -13 -7 -3 -4 -44 -23 -91 -42 -47 -19 -130 -57 -185 -84
-55 -28 -102 -51 -105 -52 -3 0 -16 -8 -30 -16 -92 -59 -179 -107 -184 -102
-3 4 -6 1 -6 -5 0 -7 -7 -12 -15 -12 -8 0 -15 -4 -15 -10 0 -5 -5 -10 -10 -10
-6 0 -52 -24 -103 -53 -50 -29 -117 -67 -147 -83 -30 -16 -57 -31 -60 -34 -3
-3 -25 -15 -50 -28 -25 -12 -65 -34 -90 -48 -72 -42 -466 -239 -565 -282 -164
-72 -340 -140 -491 -191 -143 -47 -395 -117 -459 -126 -16 -2 -52 -9 -80 -15
-50 -10 -87 -17 -155 -25 -19 -2 -35 -5 -35 -5 0 -1 -11 -3 -25 -5 -122 -13
-161 -17 -227 -20 -41 -2 -77 -6 -79 -8 -4 -4 44 -40 56 -42 3 -1 23 -9 44
-18 22 -10 41 -15 44 -12 3 3 10 1 16 -4 6 -5 38 -12 71 -16 70 -7 118 -14
160 -20 84 -13 200 -19 395 -19 176 0 365 7 365 14 0 1 19 3 42 5 23 2 59 6
80 10 21 3 56 8 78 11 36 5 281 57 330 70 11 3 31 7 45 10 14 2 32 7 40 11 8
3 24 8 35 10 27 5 345 112 359 121 6 3 16 7 21 8 13 3 170 67 233 95 109 49
133 60 154 69 13 6 30 14 38 19 8 5 42 22 75 37 33 16 74 38 90 49 17 11 32
19 35 19 6 -2 53 19 60 26 3 3 19 12 35 20 17 8 32 17 35 20 3 3 30 18 60 34
135 70 205 109 210 115 3 4 21 13 40 21 19 8 37 17 40 21 3 3 50 30 105 59 55
29 141 75 190 102 50 27 119 62 155 79 36 17 68 36 72 43 4 6 8 8 8 4 0 -4 49
17 110 47 60 30 113 55 116 55 3 0 27 10 53 23 25 13 51 25 56 27 19 5 40 13
75 27 54 22 261 92 284 96 12 2 28 6 36 10 8 3 29 9 45 13 17 4 35 8 40 10 6
1 28 5 50 9 22 3 48 9 58 11 71 21 496 25 532 5 11 -6 24 -8 70 -13 22 -2 31
2 33 14 3 18 -27 36 -73 45 -11 2 -41 10 -66 18 -51 17 -61 20 -134 30 -27 4
-61 9 -75 12 -45 7 -74 11 -130 17 -30 3 -75 8 -100 11 -25 3 -70 8 -100 11
-53 6 -507 14 -512 9z"/>
<path d="M2079 5346 c-2 -2 -51 -7 -109 -10 -131 -8 -195 -15 -240 -27 -19 -4
-52 -11 -73 -14 -94 -15 -248 -70 -375 -134 -92 -46 -110 -71 -77 -105 12 -12
42 -15 138 -16 151 -1 314 -11 417 -25 19 -3 57 -7 84 -10 27 -3 52 -8 56 -10
4 -2 25 -5 48 -6 23 -2 42 -5 42 -8 0 -4 10 -7 23 -7 44 -2 104 -11 113 -16 5
-4 27 -9 49 -12 22 -4 48 -9 58 -12 11 -3 29 -8 40 -10 39 -6 118 -23 161 -35
22 -6 52 -13 66 -16 14 -2 43 -9 65 -15 22 -6 46 -11 53 -9 6 1 12 -2 12 -6 0
-5 8 -9 18 -9 9 -1 28 -4 42 -7 14 -4 43 -11 65 -16 22 -5 65 -16 95 -24 56
-15 225 -53 270 -61 14 -2 36 -7 50 -10 27 -6 79 -14 145 -22 22 -3 50 -7 62
-9 110 -24 548 -24 670 -1 10 2 41 7 68 10 28 4 70 12 95 17 25 6 52 12 60 14
101 21 233 65 248 83 18 23 15 50 -8 62 -12 6 -69 13 -128 15 -125 5 -250 17
-327 31 -11 2 -49 9 -85 15 -132 21 -490 119 -542 149 -10 6 -22 10 -27 10 -5
0 -26 8 -47 17 -22 9 -43 18 -49 19 -5 1 -39 12 -75 25 -36 12 -72 24 -80 27
-8 3 -20 6 -25 7 -6 2 -46 13 -90 25 -44 12 -88 23 -98 25 -10 2 -27 7 -37 10
-19 6 -24 7 -100 21 -25 4 -47 8 -50 9 -13 3 -89 16 -125 21 -22 3 -51 7 -65
9 -14 2 -51 7 -83 10 -32 4 -68 8 -80 11 -12 2 -84 6 -161 9 -76 3 -142 7
-146 10 -4 2 -9 3 -11 1z"/>
<path d="M1499 3605 c-3 -2 -40 -5 -82 -6 l-77 -1 0 -458 0 -458 25 -4 c14 -3
25 -2 25 2 0 6 53 6 70 -1 3 -1 9 -1 13 0 5 1 36 4 70 6 34 2 71 6 82 9 48 10
136 59 184 102 103 93 152 194 156 327 6 165 -64 304 -202 398 -70 49 -134 70
-218 73 -16 1 -33 4 -36 9 -3 4 -8 5 -10 2z m144 -175 c48 -23 102 -69 133
-115 77 -111 63 -292 -29 -386 -71 -72 -123 -97 -219 -106 l-48 -4 0 41 c0 22
0 139 0 260 0 121 0 248 0 281 l0 61 59 -5 c33 -3 79 -15 104 -27z"/>
<path d="M2119 3600 c0 -3 -1 -156 -1 -340 -1 -225 3 -349 11 -377 21 -76 114
-174 181 -189 78 -18 210 -6 210 18 0 5 4 7 10 3 12 -7 122 104 114 116 -3 5
-1 9 4 9 22 0 29 107 28 426 l-1 339 -67 0 c-38 0 -68 -2 -69 -5 0 -3 -2 -156
-3 -340 -1 -214 -6 -344 -13 -360 -22 -50 -77 -81 -137 -75 -46 4 -95 30 -96
53 0 6 -4 12 -9 12 -19 0 -23 57 -24 380 l-2 335 -67 0 c-38 0 -68 -2 -69 -5z"/>
<path d="M2839 3602 c-12 -2 -14 -73 -12 -455 0 -248 2 -455 2 -458 1 -10 81
-16 81 -7 0 4 13 5 28 2 l29 -6 -1 281 c-1 296 -1 298 42 220 37 -67 47 -84
52 -89 5 -5 40 -67 69 -125 9 -16 19 -31 24 -33 4 -2 7 -8 7 -13 0 -5 10 -26
23 -47 13 -20 37 -62 54 -92 55 -102 52 -99 108 -98 l51 1 -2 456 c-1 251 -2
458 -3 462 -2 11 -126 4 -131 -8 -3 -7 -5 -130 -5 -273 1 -143 0 -260 -1 -260
-3 0 -58 100 -169 305 -21 39 -55 99 -75 135 -20 36 -39 73 -43 83 -3 9 -14
17 -24 18 -10 0 -34 1 -54 2 -20 1 -42 1 -50 -1z"/>
<path d="M3797 3603 c-5 -9 -23 -73 -97 -353 -22 -85 -43 -162 -47 -170 -3 -8
-7 -22 -8 -30 -1 -8 -21 -85 -45 -170 -62 -225 -63 -205 17 -204 66 1 68 2 80
33 7 17 15 44 17 59 7 58 8 58 121 57 57 0 109 -5 114 -10 5 -6 12 -21 14 -35
19 -108 23 -110 156 -101 9 1 11 8 7 24 -17 57 -38 133 -41 147 -2 8 -13 51
-25 95 -12 44 -23 85 -24 90 -1 6 -8 30 -15 55 -7 25 -15 52 -16 60 -2 8 -9
30 -14 49 -6 19 -8 38 -5 42 3 5 1 9 -4 9 -5 0 -9 6 -9 13 -1 6 -21 86 -45
177 l-45 165 -41 3 c-22 2 -42 -1 -45 -5z m57 -385 c11 -58 20 -99 34 -152 6
-20 8 -36 5 -36 -3 0 -1 -6 4 -12 24 -32 9 -43 -59 -45 -38 0 -68 1 -68 4 0 3
9 44 21 92 12 47 23 95 26 106 2 11 6 27 8 35 2 8 4 21 4 28 2 25 19 11 25
-20z"/>
<path d="M4471 3590 c-183 -62 -246 -265 -122 -391 30 -31 122 -90 169 -108
17 -8 32 -17 32 -22 0 -5 6 -9 13 -9 8 0 25 -13 39 -29 21 -23 26 -38 24 -77
-1 -29 -10 -61 -21 -78 -24 -36 -92 -66 -137 -60 -44 7 -129 48 -152 73 -11
12 -23 21 -27 21 -5 0 -8 -36 -7 -81 l1 -81 37 -23 c51 -32 99 -43 172 -40 73
3 80 5 132 30 50 24 100 74 128 128 17 32 22 58 21 112 -1 125 -45 183 -197
258 -115 56 -146 85 -146 133 0 107 117 157 232 99 54 -27 62 -30 53 -16 -3 5
-2 12 2 14 5 3 7 20 6 39 -1 18 -2 43 -2 56 -2 53 -154 85 -250 52z"/>
<path d="M6204 3600 l-60 -5 1 -445 c1 -245 3 -450 3 -456 2 -14 62 -25 62
-12 0 5 9 4 20 -2 11 -6 20 -7 20 -3 0 9 76 10 85 1 4 -3 19 -3 34 2 15 4 35
3 44 -2 11 -5 17 -5 17 0 0 10 49 10 66 0 5 -3 24 -1 42 4 32 9 32 9 32 73 0
45 -4 65 -12 66 -7 0 -72 0 -143 -1 l-130 -1 0 126 -1 125 143 0 143 0 0 70 0
70 -143 0 -142 0 -1 125 0 125 143 0 143 0 0 69 0 70 -145 0 c-80 0 -148 1
-153 3 -4 2 -34 1 -68 -2z"/>
<path d="M7159 3595 c-1 -5 -2 -214 -3 -462 l-1 -453 70 3 70 2 0 213 c0 116
3 212 7 212 5 0 8 -6 8 -14 0 -7 8 -31 17 -52 9 -22 18 -43 19 -49 4 -20 95
-259 104 -274 5 -9 10 -13 11 -8 1 4 2 10 4 15 1 4 5 21 10 37 4 17 11 35 15
40 4 6 19 46 35 90 15 44 33 94 40 110 7 17 20 48 28 70 15 38 16 30 16 -183
1 -137 5 -221 10 -217 6 3 37 6 70 6 50 1 61 4 61 18 2 261 -1 895 -4 898 -2
3 -28 5 -57 6 l-53 1 -83 -225 c-107 -289 -98 -271 -113 -234 -7 17 -13 35
-14 40 -2 6 -8 24 -15 40 -6 17 -22 59 -36 95 -13 36 -40 110 -60 165 -20 55
-40 104 -45 109 -12 12 -110 13 -111 1z"/>
<path d="M8142 3568 c-6 -24 -11 -45 -11 -48 0 -3 -4 -17 -10 -33 -6 -15 -13
-38 -15 -50 -8 -36 -36 -141 -43 -157 -3 -8 -7 -22 -8 -30 -1 -8 -10 -42 -19
-75 -43 -153 -78 -281 -80 -295 -1 -9 -5 -20 -8 -25 -3 -6 -13 -42 -22 -81 -8
-39 -18 -78 -21 -85 -4 -11 9 -14 60 -13 69 1 86 9 93 46 6 39 7 43 15 56 5 6
6 12 2 12 -3 0 -1 8 4 18 8 16 23 18 117 18 l108 -1 9 -30 c4 -16 14 -50 21
-75 l12 -44 60 -1 c80 0 85 5 67 63 -8 26 -19 63 -23 82 -12 50 -67 252 -74
270 -3 8 -8 26 -10 40 -5 28 -49 189 -72 265 -8 28 -17 64 -20 80 -3 16 -7 32
-9 35 -2 4 -7 22 -10 40 -8 48 -22 60 -65 60 -36 0 -38 -2 -48 -42z m67 -355
c6 -27 14 -57 16 -68 8 -31 16 -67 22 -100 3 -16 9 -38 14 -47 5 -10 8 -19 7
-19 -2 -1 -35 -3 -75 -4 -60 -1 -71 1 -67 14 2 9 11 43 20 76 9 33 18 69 20
80 8 44 26 115 29 115 2 0 8 -21 14 -47z"/>
<path d="M8670 3601 c-14 -1 -27 -7 -30 -11 -3 -4 -4 -90 -3 -189 2 -100 3
-188 3 -196 0 -8 0 -62 0 -120 0 -58 0 -111 0 -117 0 -7 -1 -71 -3 -141 -1
-77 2 -132 8 -137 5 -4 37 -7 71 -7 l61 1 1 110 c0 61 1 118 1 126 1 10 13 15
39 16 36 2 39 0 67 -55 91 -173 108 -199 131 -204 14 -2 27 -1 29 3 5 8 48 5
62 -3 5 -3 15 -2 21 2 10 6 9 15 -5 42 -10 19 -20 36 -23 39 -3 3 -16 28 -30
55 -13 28 -29 57 -36 65 -7 8 -13 20 -14 25 -1 6 -11 27 -22 48 l-19 39 29 26
c107 98 138 275 71 405 -44 87 -135 157 -219 172 -44 7 -157 11 -190 6z m234
-172 c54 -36 80 -92 80 -167 0 -35 -4 -66 -10 -70 -5 -4 -16 -20 -24 -36 -31
-59 -150 -107 -168 -68 -6 14 -7 144 -3 343 l1 36 44 -7 c25 -4 61 -17 80 -31z"/>
<path d="M5369 3593 c-6 -42 -3 -884 3 -901 4 -13 12 -21 18 -17 5 3 63 7 128
9 129 3 182 17 262 69 98 63 189 194 205 296 9 52 10 166 2 178 -4 6 -9 25
-12 43 -15 84 -116 213 -210 267 -27 16 -75 36 -105 44 -59 17 -289 26 -291
12z m293 -161 c82 -36 150 -111 177 -195 13 -38 16 -130 6 -180 -13 -66 -68
-136 -148 -188 -50 -33 -72 -39 -147 -42 l-45 -2 0 310 c-1 171 1 314 3 319 7
13 106 0 154 -22z"/>
</g>
</svg>
