<?xml version="1.0" encoding="UTF-8" standalone="no"?>
<svg
   xmlns:dc="http://purl.org/dc/elements/1.1/"
   xmlns:cc="http://creativecommons.org/ns#"
   xmlns:rdf="http://www.w3.org/1999/02/22-rdf-syntax-ns#"
   xmlns:svg="http://www.w3.org/2000/svg"
   xmlns="http://www.w3.org/2000/svg"
   viewBox="0 0 280.26266 200.62"
   height="200.62"
   width="280.26266"
   xml:space="preserve"
   id="svg2"
   version="1.1"><metadata
     id="metadata8"><rdf:RDF><cc:Work
         rdf:about=""><dc:format>image/svg+xml</dc:format><dc:type
           rdf:resource="http://purl.org/dc/dcmitype/StillImage" /></cc:Work></rdf:RDF></metadata><defs
     id="defs6"><clipPath
       id="clipPath18"
       clipPathUnits="userSpaceOnUse"><path
         id="path16"
         d="M 0,150.465 H 210.197 V 0 H 0 Z" /></clipPath></defs><g
     transform="matrix(1.3333333,0,0,-1.3333333,0,200.62)"
     id="g10"><g
       id="g12"><g
         clip-path="url(#clipPath18)"
         id="g14"><g
           transform="translate(101.2354,79.365)"
           id="g20"><path
             id="path22"
             style="fill:#f6ba3e;fill-opacity:1;fill-rule:nonzero;stroke:none"
             d="m 0,0 c -6.235,1.1 -26.194,10.345 -43.831,6.504 -4.643,-1.011 -3.634,2.298 -3.156,4.482 2.34,10.694 7.378,19.974 15.765,27.107 14.837,12.618 31.933,15.77 49.927,9.056 18.066,-6.74 28.379,-20.64 31.72,-39.731 0.75,-4.289 -0.398,-5.704 -4.73,-5.4 C 40.027,2.414 27.367,0.774 21.909,-0.854 14.856,-2.959 6.234,-1.1 0,0" /></g><g
           transform="translate(159.9082,75.509)"
           id="g24"><path
             id="path26"
             style="fill:#ffb973;fill-opacity:1;fill-rule:nonzero;stroke:none"
             d="m 0,0 c -13.908,2.956 -25.908,-4.044 -45.011,-14.592 -15.723,-8.682 -31.83,-14.059 -49.956,-11.48 -1.785,0.254 -3.636,0.206 -6.094,1.93 20.196,0.776 36.243,10.399 52.415,19.64 14.125,8.07 29.188,9.174 44.828,6.402 0.81,-0.144 1.601,-0.428 2.379,-0.708 C -1.17,1.095 1.092,0.956 0,0" /></g><g
           transform="translate(176.9082,70.509)"
           id="g28"><path
             id="path30"
             style="fill:#fe9f59;fill-opacity:1;fill-rule:nonzero;stroke:none"
             d="m 0,0 c -13.908,2.956 -25.908,-4.044 -45.011,-14.592 -15.723,-8.683 -31.83,-14.059 -49.956,-11.48 -1.785,0.254 -3.636,0.205 -6.094,1.931 20.196,0.775 36.243,10.398 52.415,19.639 14.125,8.07 29.188,9.174 44.828,6.402 0.81,-0.144 1.601,-0.428 2.379,-0.708 C -1.17,1.095 1.092,0.956 0,0" /></g><g
           transform="translate(84.0283,61.8249)"
           id="g32"><path
             id="path34"
             style="fill:#00c4e4;fill-opacity:1;fill-rule:nonzero;stroke:none"
             d="m 0,0 c 0.983,-0.006 1.204,-1.367 0.276,-1.692 -9.765,-3.43 -19.764,-2.85 -29.673,-0.395 -10.406,2.578 -20.695,5.449 -31.539,5.055 -0.915,-0.033 -1.271,1.174 -0.477,1.63 6.787,3.899 14.273,4.459 21.98,3.751 C -33.134,7.77 -26.936,6.452 -21.025,4.162 -14.191,1.514 -7.212,0.044 0,0" /></g><g
           transform="translate(39.1572,72.342)"
           id="g36"><path
             id="path38"
             style="fill:#01e3f7;fill-opacity:1;fill-rule:nonzero;stroke:none"
             d="m 0,0 c -1.335,-0.018 -1.714,1.84 -0.473,2.333 8.996,3.57 18.201,3.574 27.569,1.235 10.383,-2.591 20.516,-6.455 32.215,-6.637 1.325,-0.021 1.669,-1.837 0.441,-2.332 -2.107,-0.85 -4.107,-1.147 -6.065,-1.482 -9.212,-1.576 -18.179,-0.1 -27.051,2.395 -5.263,1.48 -10.278,4.041 -15.796,4.365 C 7.237,0.089 3.619,0.05 0,0" /></g><g
           transform="translate(109.0674,75.0637)"
           id="g40"><path
             id="path42"
             style="fill:#00a9e4;fill-opacity:1;fill-rule:nonzero;stroke:none"
             d="m 0,0 c 1.537,-0.219 1.574,-2.403 0.05,-2.701 -9.744,-1.901 -19.209,-0.267 -28.637,2.099 -5.483,1.376 -10.842,3.26 -16.34,4.564 -3.139,0.744 -6.323,1.008 -9.531,1.056 -1.559,0.023 -1.875,2.239 -0.376,2.67 6.455,1.858 13.179,1.962 20.103,1.258 C -24.91,7.947 -16.417,2.596 -6.826,0.934 -6.039,0.798 -2.998,0.428 0,0" /></g><g
           transform="translate(27.6025,35.1316)"
           id="g44"><path
             id="path46"
             style="fill:#666666;fill-opacity:1;fill-rule:nonzero;stroke:none"
             d="m 0,0 v -12.012 h 0.551 c 1.656,0 3.072,0.586 4.248,1.758 1.176,1.172 1.763,2.586 1.763,4.242 0,1.664 -0.587,3.082 -1.763,4.254 C 3.623,-0.586 2.207,0 0.551,0 Z m -2.625,-14.637 v 17.25 h 3.176 c 2.383,0 4.416,-0.842 6.099,-2.525 1.684,-1.684 2.526,-3.717 2.526,-6.1 0,-2.375 -0.842,-4.406 -2.526,-6.093 -1.683,-1.688 -3.716,-2.532 -6.099,-2.532 z" /></g><g
           transform="translate(47.4775,25.7566)"
           id="g48"><path
             id="path50"
             style="fill:#666666;fill-opacity:1;fill-rule:nonzero;stroke:none"
             d="M 0,0 V 12.082 H 2.625 V 0 c 0,-1.453 -0.512,-2.693 -1.535,-3.721 -1.024,-1.027 -2.262,-1.541 -3.715,-1.541 -1.453,0 -2.693,0.514 -3.721,1.541 -1.027,1.028 -1.541,2.268 -1.541,3.721 v 12.082 h 2.625 V 0 c 0,-0.727 0.258,-1.348 0.774,-1.863 0.515,-0.516 1.136,-0.774 1.863,-0.774 0.727,0 1.346,0.258 1.857,0.774 C -0.256,-1.348 0,-0.727 0,0" /></g><g
           transform="translate(61.6572,20.4948)"
           id="g52"><path
             id="path54"
             style="fill:#666666;fill-opacity:1;fill-rule:nonzero;stroke:none"
             d="M 0,0 -6.105,10.711 V 0 h -2.637 v 17.297 h 2.414 L -0.68,6.914 v 10.43 H 1.945 L 1.945,0 Z" /></g><g
           transform="translate(70.5869,25.9792)"
           id="g56"><path
             id="path58"
             style="fill:#666666;fill-opacity:1;fill-rule:nonzero;stroke:none"
             d="M 0,0 H 2.672 L 1.348,5.59 Z M 2.133,11.941 6.844,-5.543 H 4.16 L 3.422,-2.777 H -0.75 l -0.738,-2.766 h -2.684 l 4.711,17.484 z" /></g><g
           transform="translate(84.0752,20.4714)"
           id="g60"><path
             id="path62"
             style="fill:#666666;fill-opacity:1;fill-rule:nonzero;stroke:none"
             d="m 0,0 c -0.75,0 -1.412,0.094 -1.986,0.281 -0.575,0.188 -1.19,0.524 -1.846,1.008 v 3.223 c 0.406,-0.43 0.719,-0.721 0.937,-0.873 0.219,-0.153 0.487,-0.315 0.803,-0.487 0.317,-0.172 0.666,-0.316 1.049,-0.433 0.383,-0.117 0.762,-0.176 1.137,-0.176 0.773,0 1.408,0.268 1.904,0.803 0.496,0.535 0.744,1.17 0.744,1.904 0,0.602 -0.211,1.09 -0.633,1.465 C 1.687,7.09 0.996,7.52 0.035,8.004 -0.543,8.301 -1.031,8.57 -1.43,8.813 c -0.398,0.242 -0.781,0.542 -1.148,0.902 -0.367,0.359 -0.664,0.787 -0.891,1.283 -0.226,0.496 -0.34,1.08 -0.34,1.752 0.032,0.656 0.192,1.268 0.481,1.834 0.289,0.566 0.68,1.062 1.172,1.488 0.492,0.426 1.052,0.756 1.681,0.99 0.629,0.235 1.291,0.352 1.987,0.352 0.523,-0.016 1,-0.088 1.429,-0.217 0.43,-0.129 0.918,-0.361 1.465,-0.697 V 13.793 C 4.078,14.012 3.854,14.146 3.732,14.197 3.611,14.248 3.439,14.334 3.217,14.455 2.994,14.576 2.736,14.68 2.443,14.766 2.15,14.852 1.84,14.895 1.512,14.895 0.777,14.887 0.156,14.654 -0.352,14.197 -0.859,13.74 -1.113,13.211 -1.113,12.609 c 0.015,-0.57 0.228,-1.025 0.638,-1.365 0.411,-0.34 1.073,-0.721 1.987,-1.142 C 2.137,9.805 2.646,9.543 3.041,9.316 3.436,9.09 3.824,8.797 4.207,8.438 4.59,8.078 4.898,7.625 5.133,7.078 5.367,6.531 5.492,5.883 5.508,5.133 5.508,4.445 5.363,3.791 5.074,3.17 4.785,2.549 4.383,2 3.867,1.523 3.352,1.047 2.76,0.674 2.092,0.404 1.424,0.135 0.727,0 0,0" /></g><g
           transform="translate(103.2236,35.1316)"
           id="g64"><path
             id="path66"
             style="fill:#666666;fill-opacity:1;fill-rule:nonzero;stroke:none"
             d="m 0,0 v -12.012 h 0.551 c 1.656,0 3.072,0.586 4.248,1.758 1.176,1.172 1.763,2.586 1.763,4.242 0,1.664 -0.587,3.082 -1.763,4.254 C 3.623,-0.586 2.207,0 0.551,0 Z m -2.625,-14.637 v 17.25 h 3.176 c 2.383,0 4.416,-0.842 6.099,-2.525 1.684,-1.684 2.526,-3.717 2.526,-6.1 0,-2.375 -0.842,-4.406 -2.526,-6.093 -1.683,-1.688 -3.716,-2.532 -6.099,-2.532 z" /></g><g
           transform="translate(115.2119,37.7448)"
           id="g68"><path
             id="path70"
             style="fill:#666666;fill-opacity:1;fill-rule:nonzero;stroke:none"
             d="M 0,0 H 7.992 V -2.625 H 2.637 V -7.312 H 7.992 V -9.938 H 2.637 v -4.687 H 7.992 V -17.25 H 0 Z" /></g><g
           transform="translate(143.2314,37.7917)"
           id="g72"><path
             id="path74"
             style="fill:#666666;fill-opacity:1;fill-rule:nonzero;stroke:none"
             d="m 0,0 h 2.191 v -17.32 h -2.636 v 8.379 l -2.965,-7.911 -2.977,8.028 v -8.473 H -9.012 V 0 h 2.192 l 3.41,-9.281 z" /></g><g
           transform="translate(152.4072,25.9792)"
           id="g76"><path
             id="path78"
             style="fill:#666666;fill-opacity:1;fill-rule:nonzero;stroke:none"
             d="M 0,0 H 2.672 L 1.348,5.59 Z M 2.133,11.941 6.844,-5.543 H 4.16 L 3.422,-2.777 H -0.75 l -0.738,-2.766 h -2.684 l 4.711,17.484 z" /></g><g
           transform="translate(164.6885,35.1784)"
           id="g80"><path
             id="path82"
             style="fill:#666666;fill-opacity:1;fill-rule:nonzero;stroke:none"
             d="m 0,0 v -7.289 c 0.148,-0.023 0.305,-0.035 0.469,-0.035 0.961,0 1.779,0.359 2.455,1.078 0.676,0.719 1.014,1.586 1.014,2.601 0,1.016 -0.338,1.881 -1.014,2.596 C 2.248,-0.334 1.43,0.023 0.469,0.023 0.312,0.023 0.156,0.016 0,0 M 0,-9.867 V -14.66 H -2.625 V 2.59 H 0 V 2.578 c 0.156,0.008 0.312,0.012 0.469,0.012 1.633,0 3.023,-0.61 4.172,-1.828 1.148,-1.219 1.722,-2.688 1.722,-4.407 0,-1.726 -0.574,-3.199 -1.722,-4.418 -0.289,-0.304 -0.59,-0.57 -0.903,-0.796 l 3.129,-5.848 H 4.055 L 1.453,-9.809 C 1.133,-9.863 0.805,-9.891 0.469,-9.891 0.312,-9.891 0.156,-9.883 0,-9.867" /></g></g></g></g></svg>